<?xml version="1.0" encoding="UTF-8" standalone="no"?>
<svg width="176px" height="176px" viewBox="0 0 176 176" version="1.1" xmlns="http://www.w3.org/2000/svg" xmlns:xlink="http://www.w3.org/1999/xlink">
    <!-- Generator: Sketch 39.1 (31720) - http://www.bohemiancoding.com/sketch -->
    <title>projetos</title>
    <desc>Created with Sketch.</desc>
    <defs></defs>
    <g id="Page-1" stroke="none" stroke-width="1" fill="none" fill-rule="evenodd">
        <g id="projetos">
            <g id="jussaura" transform="translate(2.000000, 2.000000)">
                <g id="Jussaura">
                    <g id="Group">
                        <path d="M79.875,93 L79.875,125.962963 L48,125.962963 L48,118.275879 L48,114.926758 L48,111.142578 L48,102.430176 L48,70.8515625 M48,60.2617187 L48,56.8901367 M48,53.2915039 L48,50.5187876 C48,47.5490204 48.9242358,44.7952201 50.5009908,42.5295842 C51.0508032,41.7395599 51.6799559,41.008892 52.3769286,40.349121 C53.5666575,39.2228953 54.9540023,38.3032517 56.4816619,37.6475928 C57.1754918,37.3498067 57.8982656,37.1064749 58.6446148,36.9229752 C59.7195321,36.6586928 60.8433513,36.5185185 62.0000348,36.5185185 L62.875,36.5185185 L62.875,35.9984702 C62.875,31.5810371 66.4651646,28 70.8763549,28.0000001 L72.9361451,28.0000001 C77.3551714,28.0000001 80.9375,31.589029 80.9375,36.0009208 L80.9375,36.5211284 L89.2458515,36.5211283 C96.9801292,36.5211283 103.25,42.7889139 103.25,50.5215698 L103.25,56.3233666 C103.25,61.8517186 98.7707225,66.3333333 93.2521351,66.3333333 L81.8679394,66.3333333 C80.7672693,66.3333333 79.875,67.2308782 79.875,68.3345048 L79.875,74.0263673 M79.875,78 L79.875,82" id="Path" stroke="#F09483" stroke-width="3" stroke-linecap="round" stroke-linejoin="round"></path>
                        <g id="OLHOS" transform="translate(66.000000, 40.000000)" stroke="#F09483" stroke-linecap="round">
                            <path d="M3.25,1.84259259 L3.25,5.60728147 C3.25,7.68646173 4.92939274,9.37197036 7.01549203,9.37197036 L7.98484335,9.37197036 C10.0644672,9.37197036 11.7503354,7.68223102 11.7503354,5.60728147 L11.7503354,1.84259259" id="Path-2" stroke-width="3"></path>
                            <path d="M3.25,1.84259259 L0.0625,1.84259259" id="Path-3" stroke-width="2"></path>
                            <path d="M3.25,5.03703704 L0.0625,5.03703704" id="Path-3-Copy" stroke-width="2"></path>
                        </g>
                        <path d="M116.368128,81.8348751 L100.963994,97.2390093 L93,103 L107.1875,118 L108.223427,116.976862 L108.248201,117.001636 L112.236827,113.01301 L122.375,103 L122.375,102.874837 L131.446825,93.8030126 L131.328436,93.6846242 C133.831458,90.0450107 133.398576,84.951434 130.075434,81.6282918 C126.752292,78.3051496 121.658715,77.8722673 118.019102,80.3752894 L117.923407,80.2795954 L117.136131,81.0668723 C117.001534,81.1864087 116.869683,81.3106258 116.740782,81.4395265 C116.611881,81.5684273 116.487664,81.7002784 116.368128,81.8348751 Z" id="Combined-Shape" stroke="#F09483" stroke-width="3" stroke-linecap="round" stroke-linejoin="round"></path>
                        <path d="M54.8370904,54.3190324 C60.7427687,56.2942013 65,61.8803342 65,68.462963 C65,76.6960967 58.3402357,83.3703704 50.125,83.3703704 C49.4035172,83.3703704 48.6940313,83.318893 48,83.2194034 M48,103.667757 C48.3480689,103.624259 48.7026734,103.601852 49.0625,103.601852 C53.7569204,103.601852 57.5625,107.415723 57.5625,112.12037 C57.5625,116.825018 53.7569204,120.638889 49.0625,120.638889 C48.7026734,120.638889 48.3480689,120.616482 48,120.572984 M71.375,94.5509259 C71.375,90.7283995 74.4670334,87.6296296 78.28125,87.6296296 C78.8297861,87.6296296 79.3633857,87.6937194 79.875,87.8148348 M80.9375,36.5211284 L80.9375,36.0009208 M62.875,35.9984702 L62.875,36.5185185" id="Combined-Shape" stroke="#F09483" stroke-width="3" stroke-linecap="round" stroke-linejoin="round"></path>
                        <path d="M92.625,47.1666667 L94.75,48.2314815" id="Path-5" stroke="#F09483" stroke-width="2" stroke-linecap="round" stroke-linejoin="round"></path>
                        <g id="note" transform="translate(46.000000, 98.000000)" stroke="#F09483" stroke-width="3" stroke-linecap="round" stroke-linejoin="round">
                            <path d="M49.2133789,51 L18.739726,51 L18.739726,45.6875 L18.739726,45.6875 L76,45.6875 L76,51 L64,51 M60,51 L55.9057617,51" id="Rectangle-3"></path>
                            <polygon id="Rectangle-3-Copy" points="0 35.0625 18.739726 45.6875 18.739726 51 0 40.375"></polygon>
                            <polygon id="Rectangle-4" points="18.739726 35.0625 18.739726 45.6875 0 35.0625"></polygon>
                            <rect id="Rectangle-2" fill="#FFFFFF" x="18.739726" y="0" width="57.260274" height="45.6875"></rect>
                        </g>
                        <g id="chao" transform="translate(27.000000, 126.000000)" stroke="#F09483" stroke-width="3" stroke-linecap="round" stroke-linejoin="round">
                            <path d="M36.7021585,1 L0.5,1" id="Path-4"></path>
                            <path d="M125,1 L119.792969,1 M114.674316,1 L111.460938,1 L101.907715,1 L96.1015625,1" id="Path-4-Copy"></path>
                        </g>
                        <g id="caneca" transform="translate(139.866025, 76.000000) rotate(-30.000000) translate(-139.866025, -76.000000) translate(127.866025, 63.500000)" stroke="#F09483" stroke-width="3" stroke-linecap="round" stroke-linejoin="round">
                            <ellipse id="Oval-5" cx="14.64" cy="3.80434783" rx="9.36" ry="3.80434783"></ellipse>
                            <path d="M24,15.9689111 L24,20.0089915 C24,22.7654494 21.7605247,25 19.0079747,25 L10.2720253,25 C7.51500584,25 5.28,22.7554109 5.28,19.9989622 L5.28,3.26086957 C5.28,5.34890265 9.47061474,7.0415879 14.64,7.0415879 C19.8093853,7.0415879 24,5.34890265 24,3.26086957 L24,3.26086957 L24,11.0048095" id="Combined-Shape"></path>
                            <path d="M0.0610892959,9.34750349 C1.20959168,8.26841239 2.74741672,7.60869565 4.43733264,7.60869565 C4.70797085,7.60869565 4.97470829,7.62561585 5.23657053,7.65846907 L5.23657053,20.4688346 C5.23657053,20.5134245 5.23715308,20.5578759 5.23831097,20.6021819 L5.23831097,20.6021819 C4.97589022,20.6351787 4.70857047,20.6521739 4.43733264,20.6521739 C2.85776887,20.6521739 1.41108134,20.0758036 0.290996546,19.1193295" id="Combined-Shape"></path>
                        </g>
                        <path d="M0,86 C0,88.1748911 0.0807332367,90.3309259 0.239366328,92.4652711 L0.239366328,92.4652711 M1.18490156,100.308459 C1.60173349,102.797516 2.12547893,105.250342 2.75125531,107.662054 C3.71599051,111.380098 4.92322462,115.000425 6.35506744,118.505145 C8.74739309,124.360839 11.7667317,129.893808 15.3296401,135.020609 C30.8611441,157.369467 56.722,172 86,172 C102.993004,172 118.834887,167.071467 132.17419,158.565861 M154.204108,138.392166 C155.019372,137.332437 155.810492,136.253169 156.576644,135.155187 M159.39742,130.843449 C160.65543,128.788797 161.829586,126.677239 162.915129,124.513534 C168.72803,112.927258 172,99.8457338 172,86 C172,71.5032682 168.413114,57.8442984 162.078422,45.8621697 C160.903441,43.6396827 159.633924,41.4748859 158.275226,39.3731339 M155.119659,34.8198323 C139.450137,13.6927378 114.324123,0 86,0 C74.0716231,0 62.7104553,2.42851081 52.3839481,6.81808085 M45.3640317,10.1870339 C38.6167437,13.8111901 32.4090698,18.3097769 26.8926032,23.5312011" id="Oval-7" stroke="#F09682" stroke-width="3" stroke-linecap="round" stroke-linejoin="round"></path>
                        <g id="meterito" transform="translate(81.000000, 109.000000)">
                            <path d="M14.6487206,22 C12.7662097,22 10.8836988,21.2910192 9.45058091,19.8727989 L0.406008696,10.9230634 C0.144135047,10.6640649 0,10.3195956 0,9.95327378 C0,9.58682262 0.144135047,9.24235336 0.406008696,8.98335489 C0.667751669,8.72435642 1.01587113,8.58160339 1.38607475,8.58160339 C1.75640904,8.58160339 2.1045285,8.72435642 2.36640215,8.98335489 L4.82571456,11.4170095 C4.93953289,11.5295051 5.09072442,11.5914423 5.25158593,11.5914423 C5.41244743,11.5914423 5.56363896,11.5295051 5.67732662,11.4170095 C5.79101428,11.3045139 5.85373851,11.1547784 5.85373851,10.9957329 C5.85373851,10.8364288 5.79101428,10.6868226 5.67732662,10.574327 L2.07826273,7.01300106 C1.53791965,6.47819443 1.53791965,5.60796991 2.07826273,5.07316328 C2.61886716,4.53822735 3.4983131,4.53822735 4.03865618,5.07316328 L6.128157,7.14075468 C6.3631115,7.37285765 6.74507591,7.37311626 6.97976906,7.14075468 C7.21459289,6.9085224 7.21459289,6.53043376 6.97976906,6.29807218 L2.98070755,2.34081345 C2.7188339,2.08181498 2.57456818,1.73734572 2.57456818,1.37089456 C2.57456818,1.00457271 2.7188339,0.66010345 2.98070755,0.401104978 C3.52105063,-0.133572346 4.40049657,-0.133830957 4.94097032,0.401104978 L10.5875882,5.98838604 C10.7012759,6.10088163 10.8524674,6.16294816 11.0133289,6.16294816 C11.1741904,6.16294816 11.3253819,6.10088163 11.4390696,5.98838604 C11.5528879,5.87589045 11.6154815,5.72628424 11.6154815,5.56723875 C11.6154815,5.40793465 11.5528879,5.25832844 11.4392003,5.14583285 L8.84189456,2.57576114 C8.58002091,2.31676267 8.43575519,1.97229341 8.43575519,1.60584225 C8.43575519,1.2395204 8.58002091,0.89505114 8.84176388,0.635923363 C9.38236831,0.100987428 10.2618143,0.100987428 10.8021573,0.635923363 L19.8467295,9.58578818 C21.2352871,10.9596568 22,12.7863524 22,14.7292935 C22,16.6722346 21.2352871,18.4989303 19.8467295,19.8727989 C18.4137423,21.2910192 16.5311008,22 14.6487206,22 L14.6487206,22 Z" id="Fill-1" fill="#F09483"></path>
                            <ellipse id="Oval-2" fill="#FFFFFF" cx="15" cy="15" rx="4" ry="4"></ellipse>
                        </g>
                    </g>
                </g>
            </g>
        </g>
    </g>
</svg>